<mxfile host="app.diagrams.net" modified="2023-03-17T09:50:02.416Z" agent="5.0 (Windows NT 10.0; Win64; x64) AppleWebKit/537.36 (KHTML, like Gecko) Chrome/111.0.0.0 Safari/537.36" etag="ITIhtVULr5C0o7K2vAu-" version="21.0.6" type="github">
  <diagram id="C5RBs43oDa-KdzZeNtuy" name="Page-1">
    <mxGraphModel dx="1050" dy="549" grid="1" gridSize="10" guides="1" tooltips="1" connect="1" arrows="1" fold="1" page="1" pageScale="1" pageWidth="827" pageHeight="1169" math="0" shadow="0">
      <root>
        <mxCell id="WIyWlLk6GJQsqaUBKTNV-0" />
        <mxCell id="WIyWlLk6GJQsqaUBKTNV-1" parent="WIyWlLk6GJQsqaUBKTNV-0" />
        <mxCell id="_MRiqfZ5_h3y5lJ8WUpM-0" style="edgeStyle=orthogonalEdgeStyle;rounded=0;orthogonalLoop=1;jettySize=auto;html=1;exitX=0.5;exitY=1;exitDx=0;exitDy=0;entryX=0.5;entryY=0;entryDx=0;entryDy=0;" edge="1" parent="WIyWlLk6GJQsqaUBKTNV-1" source="_MRiqfZ5_h3y5lJ8WUpM-1" target="_MRiqfZ5_h3y5lJ8WUpM-3">
          <mxGeometry relative="1" as="geometry" />
        </mxCell>
        <mxCell id="_MRiqfZ5_h3y5lJ8WUpM-71" value="" style="edgeStyle=orthogonalEdgeStyle;rounded=0;orthogonalLoop=1;jettySize=auto;html=1;" edge="1" parent="WIyWlLk6GJQsqaUBKTNV-1" source="_MRiqfZ5_h3y5lJ8WUpM-68" target="_MRiqfZ5_h3y5lJ8WUpM-1">
          <mxGeometry relative="1" as="geometry" />
        </mxCell>
        <mxCell id="_MRiqfZ5_h3y5lJ8WUpM-1" value="创建活动" style="rounded=1;whiteSpace=wrap;html=1;" vertex="1" parent="WIyWlLk6GJQsqaUBKTNV-1">
          <mxGeometry x="340" y="70" width="100" height="40" as="geometry" />
        </mxCell>
        <mxCell id="_MRiqfZ5_h3y5lJ8WUpM-2" style="edgeStyle=orthogonalEdgeStyle;rounded=0;orthogonalLoop=1;jettySize=auto;html=1;exitX=0.5;exitY=1;exitDx=0;exitDy=0;entryX=0.5;entryY=0;entryDx=0;entryDy=0;" edge="1" parent="WIyWlLk6GJQsqaUBKTNV-1" source="_MRiqfZ5_h3y5lJ8WUpM-3" target="_MRiqfZ5_h3y5lJ8WUpM-4">
          <mxGeometry relative="1" as="geometry" />
        </mxCell>
        <mxCell id="_MRiqfZ5_h3y5lJ8WUpM-3" value="添加会员" style="rounded=1;whiteSpace=wrap;html=1;" vertex="1" parent="WIyWlLk6GJQsqaUBKTNV-1">
          <mxGeometry x="340" y="140" width="100" height="40" as="geometry" />
        </mxCell>
        <mxCell id="_MRiqfZ5_h3y5lJ8WUpM-73" value="" style="edgeStyle=orthogonalEdgeStyle;rounded=0;orthogonalLoop=1;jettySize=auto;html=1;" edge="1" parent="WIyWlLk6GJQsqaUBKTNV-1" source="_MRiqfZ5_h3y5lJ8WUpM-4" target="_MRiqfZ5_h3y5lJ8WUpM-72">
          <mxGeometry relative="1" as="geometry" />
        </mxCell>
        <mxCell id="_MRiqfZ5_h3y5lJ8WUpM-4" value="保存数据" style="rounded=1;whiteSpace=wrap;html=1;" vertex="1" parent="WIyWlLk6GJQsqaUBKTNV-1">
          <mxGeometry x="340" y="210" width="100" height="40" as="geometry" />
        </mxCell>
        <mxCell id="_MRiqfZ5_h3y5lJ8WUpM-11" style="edgeStyle=orthogonalEdgeStyle;rounded=0;orthogonalLoop=1;jettySize=auto;html=1;entryX=0.412;entryY=-0.055;entryDx=0;entryDy=0;entryPerimeter=0;" edge="1" parent="WIyWlLk6GJQsqaUBKTNV-1" source="_MRiqfZ5_h3y5lJ8WUpM-13" target="_MRiqfZ5_h3y5lJ8WUpM-14">
          <mxGeometry relative="1" as="geometry" />
        </mxCell>
        <mxCell id="_MRiqfZ5_h3y5lJ8WUpM-12" style="edgeStyle=orthogonalEdgeStyle;rounded=0;orthogonalLoop=1;jettySize=auto;html=1;entryX=0.5;entryY=0;entryDx=0;entryDy=0;" edge="1" parent="WIyWlLk6GJQsqaUBKTNV-1" source="_MRiqfZ5_h3y5lJ8WUpM-13" target="_MRiqfZ5_h3y5lJ8WUpM-15">
          <mxGeometry relative="1" as="geometry" />
        </mxCell>
        <mxCell id="_MRiqfZ5_h3y5lJ8WUpM-13" value="服务队积分计算" style="rounded=1;whiteSpace=wrap;html=1;" vertex="1" parent="WIyWlLk6GJQsqaUBKTNV-1">
          <mxGeometry x="100" y="410" width="100" height="40" as="geometry" />
        </mxCell>
        <mxCell id="_MRiqfZ5_h3y5lJ8WUpM-63" style="edgeStyle=orthogonalEdgeStyle;rounded=0;orthogonalLoop=1;jettySize=auto;html=1;" edge="1" parent="WIyWlLk6GJQsqaUBKTNV-1" source="_MRiqfZ5_h3y5lJ8WUpM-14" target="_MRiqfZ5_h3y5lJ8WUpM-61">
          <mxGeometry relative="1" as="geometry">
            <Array as="points">
              <mxPoint x="80" y="570" />
              <mxPoint x="110" y="570" />
            </Array>
          </mxGeometry>
        </mxCell>
        <mxCell id="_MRiqfZ5_h3y5lJ8WUpM-14" value="基础分计算" style="rounded=1;whiteSpace=wrap;html=1;" vertex="1" parent="WIyWlLk6GJQsqaUBKTNV-1">
          <mxGeometry x="30" y="500" width="100" height="40" as="geometry" />
        </mxCell>
        <mxCell id="_MRiqfZ5_h3y5lJ8WUpM-62" style="edgeStyle=orthogonalEdgeStyle;rounded=0;orthogonalLoop=1;jettySize=auto;html=1;entryX=0.5;entryY=0;entryDx=0;entryDy=0;" edge="1" parent="WIyWlLk6GJQsqaUBKTNV-1" source="_MRiqfZ5_h3y5lJ8WUpM-15" target="_MRiqfZ5_h3y5lJ8WUpM-61">
          <mxGeometry relative="1" as="geometry">
            <Array as="points">
              <mxPoint x="210" y="570" />
              <mxPoint x="110" y="570" />
            </Array>
          </mxGeometry>
        </mxCell>
        <mxCell id="_MRiqfZ5_h3y5lJ8WUpM-15" value="人数分计算" style="rounded=1;whiteSpace=wrap;html=1;" vertex="1" parent="WIyWlLk6GJQsqaUBKTNV-1">
          <mxGeometry x="160" y="500" width="100" height="40" as="geometry" />
        </mxCell>
        <mxCell id="_MRiqfZ5_h3y5lJ8WUpM-35" style="edgeStyle=orthogonalEdgeStyle;rounded=0;orthogonalLoop=1;jettySize=auto;html=1;entryX=0.5;entryY=0;entryDx=0;entryDy=0;" edge="1" parent="WIyWlLk6GJQsqaUBKTNV-1" source="_MRiqfZ5_h3y5lJ8WUpM-18" target="_MRiqfZ5_h3y5lJ8WUpM-27">
          <mxGeometry relative="1" as="geometry">
            <Array as="points">
              <mxPoint x="394" y="500" />
              <mxPoint x="464" y="500" />
            </Array>
          </mxGeometry>
        </mxCell>
        <mxCell id="_MRiqfZ5_h3y5lJ8WUpM-52" style="edgeStyle=orthogonalEdgeStyle;rounded=0;orthogonalLoop=1;jettySize=auto;html=1;entryX=0.5;entryY=0;entryDx=0;entryDy=0;" edge="1" parent="WIyWlLk6GJQsqaUBKTNV-1" source="_MRiqfZ5_h3y5lJ8WUpM-18" target="_MRiqfZ5_h3y5lJ8WUpM-28">
          <mxGeometry relative="1" as="geometry">
            <Array as="points">
              <mxPoint x="394" y="500" />
              <mxPoint x="580" y="500" />
            </Array>
          </mxGeometry>
        </mxCell>
        <mxCell id="_MRiqfZ5_h3y5lJ8WUpM-54" style="edgeStyle=orthogonalEdgeStyle;rounded=0;orthogonalLoop=1;jettySize=auto;html=1;entryX=0.5;entryY=0;entryDx=0;entryDy=0;" edge="1" parent="WIyWlLk6GJQsqaUBKTNV-1" source="_MRiqfZ5_h3y5lJ8WUpM-18" target="_MRiqfZ5_h3y5lJ8WUpM-26">
          <mxGeometry relative="1" as="geometry">
            <Array as="points">
              <mxPoint x="394" y="500" />
              <mxPoint x="350" y="500" />
            </Array>
          </mxGeometry>
        </mxCell>
        <mxCell id="_MRiqfZ5_h3y5lJ8WUpM-56" style="edgeStyle=orthogonalEdgeStyle;rounded=0;orthogonalLoop=1;jettySize=auto;html=1;" edge="1" parent="WIyWlLk6GJQsqaUBKTNV-1" source="_MRiqfZ5_h3y5lJ8WUpM-18">
          <mxGeometry relative="1" as="geometry">
            <mxPoint x="230" y="590" as="targetPoint" />
            <Array as="points">
              <mxPoint x="394" y="470" />
              <mxPoint x="290" y="470" />
              <mxPoint x="290" y="550" />
              <mxPoint x="230" y="550" />
              <mxPoint x="230" y="590" />
            </Array>
          </mxGeometry>
        </mxCell>
        <mxCell id="_MRiqfZ5_h3y5lJ8WUpM-78" style="edgeStyle=orthogonalEdgeStyle;rounded=0;orthogonalLoop=1;jettySize=auto;html=1;entryX=0.5;entryY=0;entryDx=0;entryDy=0;" edge="1" parent="WIyWlLk6GJQsqaUBKTNV-1" source="_MRiqfZ5_h3y5lJ8WUpM-18" target="_MRiqfZ5_h3y5lJ8WUpM-19">
          <mxGeometry relative="1" as="geometry" />
        </mxCell>
        <mxCell id="_MRiqfZ5_h3y5lJ8WUpM-18" value="会员积分计算" style="rounded=1;whiteSpace=wrap;html=1;" vertex="1" parent="WIyWlLk6GJQsqaUBKTNV-1">
          <mxGeometry x="340" y="360" width="100" height="40" as="geometry" />
        </mxCell>
        <mxCell id="_MRiqfZ5_h3y5lJ8WUpM-36" style="edgeStyle=orthogonalEdgeStyle;rounded=0;orthogonalLoop=1;jettySize=auto;html=1;entryX=0.5;entryY=0;entryDx=0;entryDy=0;" edge="1" parent="WIyWlLk6GJQsqaUBKTNV-1" source="_MRiqfZ5_h3y5lJ8WUpM-19" target="_MRiqfZ5_h3y5lJ8WUpM-27">
          <mxGeometry relative="1" as="geometry">
            <Array as="points">
              <mxPoint x="520" y="500" />
              <mxPoint x="464" y="500" />
            </Array>
          </mxGeometry>
        </mxCell>
        <mxCell id="_MRiqfZ5_h3y5lJ8WUpM-53" style="edgeStyle=orthogonalEdgeStyle;rounded=0;orthogonalLoop=1;jettySize=auto;html=1;entryX=0.5;entryY=0;entryDx=0;entryDy=0;" edge="1" parent="WIyWlLk6GJQsqaUBKTNV-1" source="_MRiqfZ5_h3y5lJ8WUpM-19" target="_MRiqfZ5_h3y5lJ8WUpM-28">
          <mxGeometry relative="1" as="geometry">
            <Array as="points">
              <mxPoint x="520" y="500" />
              <mxPoint x="580" y="500" />
            </Array>
          </mxGeometry>
        </mxCell>
        <mxCell id="_MRiqfZ5_h3y5lJ8WUpM-55" style="edgeStyle=orthogonalEdgeStyle;rounded=0;orthogonalLoop=1;jettySize=auto;html=1;entryX=0.5;entryY=0;entryDx=0;entryDy=0;" edge="1" parent="WIyWlLk6GJQsqaUBKTNV-1" source="_MRiqfZ5_h3y5lJ8WUpM-19" target="_MRiqfZ5_h3y5lJ8WUpM-26">
          <mxGeometry relative="1" as="geometry">
            <Array as="points">
              <mxPoint x="520" y="500" />
              <mxPoint x="350" y="500" />
            </Array>
          </mxGeometry>
        </mxCell>
        <mxCell id="_MRiqfZ5_h3y5lJ8WUpM-19" value="额外角色积分计算" style="rounded=1;whiteSpace=wrap;html=1;" vertex="1" parent="WIyWlLk6GJQsqaUBKTNV-1">
          <mxGeometry x="470" y="430" width="100" height="40" as="geometry" />
        </mxCell>
        <mxCell id="_MRiqfZ5_h3y5lJ8WUpM-50" style="edgeStyle=orthogonalEdgeStyle;rounded=0;orthogonalLoop=1;jettySize=auto;html=1;" edge="1" parent="WIyWlLk6GJQsqaUBKTNV-1" source="_MRiqfZ5_h3y5lJ8WUpM-24" target="_MRiqfZ5_h3y5lJ8WUpM-48">
          <mxGeometry relative="1" as="geometry" />
        </mxCell>
        <mxCell id="_MRiqfZ5_h3y5lJ8WUpM-24" value="额外职务积分计算" style="rounded=1;whiteSpace=wrap;html=1;" vertex="1" parent="WIyWlLk6GJQsqaUBKTNV-1">
          <mxGeometry x="610" y="410" width="100" height="40" as="geometry" />
        </mxCell>
        <mxCell id="_MRiqfZ5_h3y5lJ8WUpM-43" style="edgeStyle=orthogonalEdgeStyle;rounded=0;orthogonalLoop=1;jettySize=auto;html=1;entryX=0.5;entryY=0;entryDx=0;entryDy=0;" edge="1" parent="WIyWlLk6GJQsqaUBKTNV-1" source="_MRiqfZ5_h3y5lJ8WUpM-26" target="_MRiqfZ5_h3y5lJ8WUpM-41">
          <mxGeometry relative="1" as="geometry">
            <Array as="points">
              <mxPoint x="360" y="720" />
              <mxPoint x="464" y="720" />
            </Array>
          </mxGeometry>
        </mxCell>
        <mxCell id="_MRiqfZ5_h3y5lJ8WUpM-26" value="基础分计算" style="rounded=1;whiteSpace=wrap;html=1;" vertex="1" parent="WIyWlLk6GJQsqaUBKTNV-1">
          <mxGeometry x="300" y="590" width="100" height="40" as="geometry" />
        </mxCell>
        <mxCell id="_MRiqfZ5_h3y5lJ8WUpM-47" style="edgeStyle=orthogonalEdgeStyle;rounded=0;orthogonalLoop=1;jettySize=auto;html=1;entryX=0.5;entryY=0;entryDx=0;entryDy=0;" edge="1" parent="WIyWlLk6GJQsqaUBKTNV-1" source="_MRiqfZ5_h3y5lJ8WUpM-27" target="_MRiqfZ5_h3y5lJ8WUpM-41">
          <mxGeometry relative="1" as="geometry" />
        </mxCell>
        <mxCell id="_MRiqfZ5_h3y5lJ8WUpM-27" value="时长分计算" style="rounded=1;whiteSpace=wrap;html=1;" vertex="1" parent="WIyWlLk6GJQsqaUBKTNV-1">
          <mxGeometry x="414" y="590" width="100" height="40" as="geometry" />
        </mxCell>
        <mxCell id="_MRiqfZ5_h3y5lJ8WUpM-45" style="edgeStyle=orthogonalEdgeStyle;rounded=0;orthogonalLoop=1;jettySize=auto;html=1;" edge="1" parent="WIyWlLk6GJQsqaUBKTNV-1" source="_MRiqfZ5_h3y5lJ8WUpM-28" target="_MRiqfZ5_h3y5lJ8WUpM-41">
          <mxGeometry relative="1" as="geometry">
            <Array as="points">
              <mxPoint x="570" y="720" />
              <mxPoint x="464" y="720" />
            </Array>
          </mxGeometry>
        </mxCell>
        <mxCell id="_MRiqfZ5_h3y5lJ8WUpM-28" value="异地分计算" style="rounded=1;whiteSpace=wrap;html=1;" vertex="1" parent="WIyWlLk6GJQsqaUBKTNV-1">
          <mxGeometry x="530" y="590" width="100" height="40" as="geometry" />
        </mxCell>
        <mxCell id="_MRiqfZ5_h3y5lJ8WUpM-58" style="edgeStyle=orthogonalEdgeStyle;rounded=0;orthogonalLoop=1;jettySize=auto;html=1;entryX=0.5;entryY=0;entryDx=0;entryDy=0;" edge="1" parent="WIyWlLk6GJQsqaUBKTNV-1" source="_MRiqfZ5_h3y5lJ8WUpM-41" target="_MRiqfZ5_h3y5lJ8WUpM-57">
          <mxGeometry relative="1" as="geometry" />
        </mxCell>
        <mxCell id="_MRiqfZ5_h3y5lJ8WUpM-41" value="线上参与分计算" style="rounded=1;whiteSpace=wrap;html=1;" vertex="1" parent="WIyWlLk6GJQsqaUBKTNV-1">
          <mxGeometry x="414" y="760" width="100" height="40" as="geometry" />
        </mxCell>
        <mxCell id="_MRiqfZ5_h3y5lJ8WUpM-60" style="edgeStyle=orthogonalEdgeStyle;rounded=0;orthogonalLoop=1;jettySize=auto;html=1;entryX=1;entryY=0.75;entryDx=0;entryDy=0;" edge="1" parent="WIyWlLk6GJQsqaUBKTNV-1" source="_MRiqfZ5_h3y5lJ8WUpM-48" target="_MRiqfZ5_h3y5lJ8WUpM-57">
          <mxGeometry relative="1" as="geometry">
            <Array as="points">
              <mxPoint x="700" y="880" />
            </Array>
          </mxGeometry>
        </mxCell>
        <mxCell id="_MRiqfZ5_h3y5lJ8WUpM-48" value="基础分计算" style="rounded=1;whiteSpace=wrap;html=1;" vertex="1" parent="WIyWlLk6GJQsqaUBKTNV-1">
          <mxGeometry x="650" y="540" width="100" height="40" as="geometry" />
        </mxCell>
        <mxCell id="_MRiqfZ5_h3y5lJ8WUpM-59" style="edgeStyle=orthogonalEdgeStyle;rounded=0;orthogonalLoop=1;jettySize=auto;html=1;entryX=0;entryY=0.75;entryDx=0;entryDy=0;" edge="1" parent="WIyWlLk6GJQsqaUBKTNV-1" source="_MRiqfZ5_h3y5lJ8WUpM-51" target="_MRiqfZ5_h3y5lJ8WUpM-57">
          <mxGeometry relative="1" as="geometry">
            <Array as="points">
              <mxPoint x="230" y="880" />
            </Array>
          </mxGeometry>
        </mxCell>
        <mxCell id="_MRiqfZ5_h3y5lJ8WUpM-51" value="其他录入分计算" style="rounded=1;whiteSpace=wrap;html=1;" vertex="1" parent="WIyWlLk6GJQsqaUBKTNV-1">
          <mxGeometry x="180" y="590" width="100" height="40" as="geometry" />
        </mxCell>
        <mxCell id="_MRiqfZ5_h3y5lJ8WUpM-67" style="edgeStyle=orthogonalEdgeStyle;rounded=0;orthogonalLoop=1;jettySize=auto;html=1;entryX=1;entryY=0.5;entryDx=0;entryDy=0;" edge="1" parent="WIyWlLk6GJQsqaUBKTNV-1" source="_MRiqfZ5_h3y5lJ8WUpM-57" target="_MRiqfZ5_h3y5lJ8WUpM-64">
          <mxGeometry relative="1" as="geometry">
            <Array as="points">
              <mxPoint x="464" y="960" />
            </Array>
          </mxGeometry>
        </mxCell>
        <mxCell id="_MRiqfZ5_h3y5lJ8WUpM-57" value="会员总分更新" style="rounded=1;whiteSpace=wrap;html=1;" vertex="1" parent="WIyWlLk6GJQsqaUBKTNV-1">
          <mxGeometry x="414" y="850" width="100" height="40" as="geometry" />
        </mxCell>
        <mxCell id="_MRiqfZ5_h3y5lJ8WUpM-61" value="服务队总分更新" style="rounded=1;whiteSpace=wrap;html=1;" vertex="1" parent="WIyWlLk6GJQsqaUBKTNV-1">
          <mxGeometry x="60" y="670" width="100" height="40" as="geometry" />
        </mxCell>
        <mxCell id="_MRiqfZ5_h3y5lJ8WUpM-66" style="edgeStyle=orthogonalEdgeStyle;rounded=0;orthogonalLoop=1;jettySize=auto;html=1;" edge="1" parent="WIyWlLk6GJQsqaUBKTNV-1" source="_MRiqfZ5_h3y5lJ8WUpM-61" target="_MRiqfZ5_h3y5lJ8WUpM-64">
          <mxGeometry relative="1" as="geometry">
            <Array as="points">
              <mxPoint x="110" y="960" />
            </Array>
          </mxGeometry>
        </mxCell>
        <mxCell id="_MRiqfZ5_h3y5lJ8WUpM-64" value="结束" style="ellipse;whiteSpace=wrap;html=1;aspect=fixed;" vertex="1" parent="WIyWlLk6GJQsqaUBKTNV-1">
          <mxGeometry x="150" y="940" width="40" height="40" as="geometry" />
        </mxCell>
        <mxCell id="_MRiqfZ5_h3y5lJ8WUpM-68" value="开始" style="ellipse;whiteSpace=wrap;html=1;aspect=fixed;" vertex="1" parent="WIyWlLk6GJQsqaUBKTNV-1">
          <mxGeometry x="370" width="40" height="40" as="geometry" />
        </mxCell>
        <mxCell id="_MRiqfZ5_h3y5lJ8WUpM-74" style="edgeStyle=orthogonalEdgeStyle;rounded=0;orthogonalLoop=1;jettySize=auto;html=1;entryX=0.5;entryY=0;entryDx=0;entryDy=0;" edge="1" parent="WIyWlLk6GJQsqaUBKTNV-1" source="_MRiqfZ5_h3y5lJ8WUpM-72" target="_MRiqfZ5_h3y5lJ8WUpM-13">
          <mxGeometry relative="1" as="geometry" />
        </mxCell>
        <mxCell id="_MRiqfZ5_h3y5lJ8WUpM-75" style="edgeStyle=orthogonalEdgeStyle;rounded=0;orthogonalLoop=1;jettySize=auto;html=1;" edge="1" parent="WIyWlLk6GJQsqaUBKTNV-1" source="_MRiqfZ5_h3y5lJ8WUpM-72" target="_MRiqfZ5_h3y5lJ8WUpM-18">
          <mxGeometry relative="1" as="geometry" />
        </mxCell>
        <mxCell id="_MRiqfZ5_h3y5lJ8WUpM-77" style="edgeStyle=orthogonalEdgeStyle;rounded=0;orthogonalLoop=1;jettySize=auto;html=1;entryX=0.5;entryY=0;entryDx=0;entryDy=0;" edge="1" parent="WIyWlLk6GJQsqaUBKTNV-1" source="_MRiqfZ5_h3y5lJ8WUpM-72" target="_MRiqfZ5_h3y5lJ8WUpM-24">
          <mxGeometry relative="1" as="geometry" />
        </mxCell>
        <mxCell id="_MRiqfZ5_h3y5lJ8WUpM-72" value="积分计算" style="rounded=1;whiteSpace=wrap;html=1;" vertex="1" parent="WIyWlLk6GJQsqaUBKTNV-1">
          <mxGeometry x="340" y="290" width="100" height="40" as="geometry" />
        </mxCell>
      </root>
    </mxGraphModel>
  </diagram>
</mxfile>
